<?xml version="1.0" encoding="UTF-8"?>
<!DOCTYPE svg PUBLIC "-//W3C//DTD SVG 1.1//EN" "http://www.w3.org/Graphics/SVG/1.1/DTD/svg11.dtd">
<svg xmlns="http://www.w3.org/2000/svg" version="1.1" width="50px" height="50px" style="shape-rendering:geometricPrecision; text-rendering:geometricPrecision; image-rendering:optimizeQuality; fill-rule:evenodd; clip-rule:evenodd" xmlns:xlink="http://www.w3.org/1999/xlink">
<g><path style="opacity:0.945" fill="#000000" d="M 5.5,-0.5 C 18.5,-0.5 31.5,-0.5 44.5,-0.5C 44.9867,0.473444 45.4867,1.47344 46,2.5C 46.7352,18.1847 46.5686,33.8513 45.5,49.5C 42.1667,49.5 38.8333,49.5 35.5,49.5C 35.5,48.1667 35.5,46.8333 35.5,45.5C 28.1667,45.5 20.8333,45.5 13.5,45.5C 13.5,46.8333 13.5,48.1667 13.5,49.5C 10.1667,49.5 6.83333,49.5 3.5,49.5C 2.43145,33.8513 2.26478,18.1847 3,2.5C 3.69794,1.30943 4.53128,0.309426 5.5,-0.5 Z M 14.5,3.5 C 21.5079,3.33371 28.5079,3.50038 35.5,4C 36.8333,5 36.8333,6 35.5,7C 28.5,7.66667 21.5,7.66667 14.5,7C 13.3157,5.85453 13.3157,4.68787 14.5,3.5 Z M 10.5,10.5 C 20.2199,10.1924 29.8865,10.5257 39.5,11.5C 41.0419,13.879 41.7086,16.5457 41.5,19.5C 41.4407,21.8912 41.1074,24.2246 40.5,26.5C 30.1614,28.1267 19.8281,28.4601 9.5,27.5C 7.95807,25.121 7.2914,22.4543 7.5,19.5C 7.0233,15.8602 8.0233,12.8602 10.5,10.5 Z M 8.5,34.5 C 10.1667,34.5 11.8333,34.5 13.5,34.5C 13.5,36.1667 13.5,37.8333 13.5,39.5C 11.8333,39.5 10.1667,39.5 8.5,39.5C 8.5,37.8333 8.5,36.1667 8.5,34.5 Z M 35.5,34.5 C 37.1667,34.5 38.8333,34.5 40.5,34.5C 40.5,36.1667 40.5,37.8333 40.5,39.5C 38.8333,39.5 37.1667,39.5 35.5,39.5C 35.5,37.8333 35.5,36.1667 35.5,34.5 Z"/></g>
<g><path style="opacity:0.922" fill="#000000" d="M -0.5,11.5 C 0.794259,13.0478 1.46093,15.0478 1.5,17.5C 1.46093,19.9522 0.794259,21.9522 -0.5,23.5C -0.5,19.5 -0.5,15.5 -0.5,11.5 Z"/></g>
<g><path style="opacity:0.922" fill="#000000" d="M 49.5,11.5 C 49.5,15.5 49.5,19.5 49.5,23.5C 48.2057,21.9522 47.5391,19.9522 47.5,17.5C 47.5391,15.0478 48.2057,13.0478 49.5,11.5 Z"/></g>
</svg>
